HIERARCHY
ROOT Hips
{
	OFFSET 0.00000 0.00000 0.00000
	CHANNELS 6 Xposition Yposition Zposition Zrotation Yrotation Xrotation 
	JOINT LHipJoint
	{
		OFFSET 0 0 0
		CHANNELS 3 Zrotation Yrotation Xrotation
		JOINT LeftUpLeg
		{
			OFFSET 1.38280 -1.96574 0.54427
			CHANNELS 3 Zrotation Yrotation Xrotation
			JOINT LeftLeg
			{
				OFFSET 2.72096 -7.47578 0.00000
				CHANNELS 3 Zrotation Yrotation Xrotation
				JOINT LeftFoot
				{
					OFFSET 2.73041 -7.50176 0.00000
					CHANNELS 3 Zrotation Yrotation Xrotation
					JOINT LeftToeBase
					{
						OFFSET 0.16150 -0.44371 2.18031
						CHANNELS 3 Zrotation Yrotation Xrotation
						End Site
						{
							OFFSET 0.00000 -0.00000 1.12127
						}
					}
				}
			}
		}
	}
	JOINT RHipJoint
	{
		OFFSET 0 0 0
		CHANNELS 3 Zrotation Yrotation Xrotation
		JOINT RightUpLeg
		{
			OFFSET -1.57224 -1.96575 0.54427
			CHANNELS 3 Zrotation Yrotation Xrotation
			JOINT RightLeg
			{
				OFFSET -2.95935 -8.13076 0.00000
				CHANNELS 3 Zrotation Yrotation Xrotation
				JOINT RightFoot
				{
					OFFSET -2.52345 -6.93311 0.00000
					CHANNELS 3 Zrotation Yrotation Xrotation
					JOINT RightToeBase
					{
						OFFSET -0.04475 -0.10171 1.86688
						CHANNELS 3 Zrotation Yrotation Xrotation
						End Site
						{
							OFFSET -0.00000 -0.00000 0.95157
						}
					}
				}
			}
		}
	}
	JOINT LowerBack
	{
		OFFSET 0 0 0
		CHANNELS 3 Zrotation Yrotation Xrotation
		JOINT Spine
		{
			OFFSET 0.00669 2.07367 0.09104
			CHANNELS 3 Zrotation Yrotation Xrotation
			JOINT Spine1
			{
				OFFSET -0.00664 2.06198 -0.04732
				CHANNELS 3 Zrotation Yrotation Xrotation
				JOINT Neck
				{
					OFFSET 0 0 0
					CHANNELS 3 Zrotation Yrotation Xrotation
					JOINT Neck1
					{
						OFFSET -0.00021 1.49948 0.16345
						CHANNELS 3 Zrotation Yrotation Xrotation
						JOINT Head
						{
							OFFSET 0.06080 1.50567 -0.26702
							CHANNELS 3 Zrotation Yrotation Xrotation
							End Site
							{
								OFFSET 0.01726 1.56470 -0.11854
							}
						}
					}
				}
				JOINT LeftShoulder
				{
					OFFSET 0 0 0
					CHANNELS 3 Zrotation Yrotation Xrotation
					JOINT LeftArm
					{
						OFFSET 3.14993 0.82932 -0.22488
						CHANNELS 3 Zrotation Yrotation Xrotation
						JOINT LeftForeArm
						{
							OFFSET 5.68236 -0.00000 -0.00000
							CHANNELS 3 Zrotation Yrotation Xrotation
							JOINT LeftHand
							{
								OFFSET 3.17112 -0.00000 0.00000
								CHANNELS 3 Zrotation Yrotation Xrotation
								JOINT LeftFingerBase
								{
									OFFSET 0 0 0
									CHANNELS 3 Zrotation Yrotation Xrotation
									JOINT LeftHandIndex1
									{
										OFFSET 0.63269 -0.00000 0.00000
										CHANNELS 3 Zrotation Yrotation Xrotation
										End Site
										{
											OFFSET 0.51009 -0.00000 0.00000
										}
									}
								}
								JOINT LThumb
								{
									OFFSET 0 0 0
									CHANNELS 3 Zrotation Yrotation Xrotation
									End Site
									{
										OFFSET 0.51788 -0.00000 0.51788
									}
								}
							}
						}
					}
				}
				JOINT RightShoulder
				{
					OFFSET 0 0 0
					CHANNELS 3 Zrotation Yrotation Xrotation
					JOINT RightArm
					{
						OFFSET -3.10571 0.91279 -0.33334
						CHANNELS 3 Zrotation Yrotation Xrotation
						JOINT RightForeArm
						{
							OFFSET -5.87120 -0.00000 -0.00000
							CHANNELS 3 Zrotation Yrotation Xrotation
							JOINT RightHand
							{
								OFFSET -3.37589 -0.00000 0.00000
								CHANNELS 3 Zrotation Yrotation Xrotation
								JOINT RightFingerBase
								{
									OFFSET 0 0 0
									CHANNELS 3 Zrotation Yrotation Xrotation
									JOINT RightHandIndex1
									{
										OFFSET -0.60326 -0.00000 0.00000
										CHANNELS 3 Zrotation Yrotation Xrotation
										End Site
										{
											OFFSET -0.48636 -0.00000 0.00000
										}
									}
								}
								JOINT RThumb
								{
									OFFSET 0 0 0
									CHANNELS 3 Zrotation Yrotation Xrotation
									End Site
									{
										OFFSET -0.49379 -0.00000 0.49379
									}
								}
							}
						}
					}
				}
			}
		}
	}
}
MOTION
Frames: 10
Frame Time: .0083333
20.3264 15.8161 -0.4397 188.2270 -91.7043 -557.5980 0.0000 0.0000 0.0000 -14.0664 -2.9579 -42.3544 10.8786 17.8752 62.3867 0.6649 -0.3231 -15.3017 0.0006 0.1515 0.4162 0.0000 0.0000 0.0000 12.7836 4.8465 -40.0353 -9.9496 -17.3814 59.3197 0.0114 3.9251 -2.2316 -5.7011 -14.1323 43.7699 -0.7323 1.3509 12.7514 1.7675 1.0640 10.5853 2.1456 0.1602 3.9568 -3.1318 -4.0521 -14.2257 6.4580 -5.4459 4.6901 2.0777 -2.4183 3.9661 0.0000 -0.0000 0.0000 -84.1334 -49.7898 58.9219 106.0374 -59.0055 -73.8424 -0.0000 0.0000 -7.1659 23.4370 24.6358 10.2432 -7.1250 0.0000 -0.0000 -6.6353 56.4140 -1.8628 0.0000 -0.0000 0.0000 93.8984 37.6135 57.4568 -109.3124 58.5427 -76.6432 0.0000 -0.0000 -46.9904 -36.0548 3.3167 -2.4118 7.1250 -0.0000 -0.0000 -7.1362 -25.8708 -3.3315
20.3269 15.8161 -0.4400 187.9840 -91.7327 -557.3860 0.0000 0.0000 0.0000 -14.0712 -2.9721 -42.3217 10.8797 17.8757 62.3904 0.6647 -0.3069 -15.3045 0.0003 0.1129 0.3101 0.0000 0.0000 0.0000 12.7803 4.8302 -40.0012 -9.9508 -17.3821 59.3237 0.0114 3.9632 -2.2628 -5.7016 -14.1328 43.7720 -0.6371 1.3846 12.7335 1.6803 1.1172 10.6158 1.9964 0.1949 4.0003 -3.0149 -4.0646 -14.2050 6.4910 -5.4838 4.5888 2.0671 -2.4359 3.9316 0.0000 0.0000 0.0000 -83.9564 -49.7866 58.4363 107.1529 -58.8586 -74.7979 -0.0000 0.0000 -7.4925 24.1724 24.7815 10.6548 -7.1250 0.0000 -0.0000 -5.9035 56.7239 -1.7006 0.0000 0.0000 0.0000 93.6288 37.5086 56.4639 -108.7296 58.6321 -76.1458 0.0000 -0.0000 -47.0941 -36.1900 3.0267 -2.2123 7.1250 -0.0000 -0.0000 -7.2684 -26.2195 -3.3345
20.3277 15.8165 -0.4405 187.6080 -91.7571 -557.0540 0.0000 0.0000 0.0000 -14.0711 -2.9745 -42.2730 10.8790 17.8754 62.3881 0.6645 -0.2972 -15.3061 0.0002 0.0813 0.2235 0.0000 0.0000 0.0000 12.7849 4.8184 -39.9482 -9.9499 -17.3816 59.3208 0.0117 4.0104 -2.2893 -5.7100 -14.1413 43.8063 -0.4337 1.4026 12.7204 1.5133 1.1590 10.6640 1.7040 0.2327 4.0647 -2.8001 -4.0732 -14.2400 6.5192 -5.5356 4.5322 2.0371 -2.4573 3.9176 -0.0000 0.0000 0.0000 -83.6348 -49.8476 57.8819 108.2368 -58.7053 -75.7249 -0.0000 0.0000 -7.9206 25.0874 24.8331 11.1235 -7.1250 0.0000 -0.0000 -4.9324 56.9775 -1.4500 -0.0000 0.0000 0.0000 93.5389 37.4487 55.5067 -108.1191 58.7224 -75.6243 0.0000 -0.0000 -47.3198 -36.4853 2.7757 -2.0512 7.1250 -0.0000 -0.0000 -7.5177 -26.5136 -3.3985
20.3286 15.8169 -0.4412 186.6250 -91.7804 -556.1180 0.0000 0.0000 0.0000 -14.0500 -2.9740 -42.2260 10.8786 17.8752 62.3868 0.6640 -0.3002 -15.2987 0.0002 0.0794 0.2182 0.0000 0.0000 0.0000 12.8119 4.8075 -39.8900 -9.9473 -17.3801 59.3123 0.0121 4.0576 -2.3103 -5.7221 -14.1535 43.8558 -0.2235 1.4117 12.7189 1.3585 1.1893 10.7080 1.4217 0.2648 4.1196 -2.5719 -4.0780 -14.3080 6.5061 -5.5834 4.5360 1.9917 -2.4766 3.9254 0.0000 -0.0000 0.0000 -83.3400 -49.9395 57.2827 109.2057 -58.5593 -76.5521 -0.0000 0.0000 -8.3540 26.0412 24.8538 11.6055 -7.1250 0.0000 -0.0000 -3.8973 57.2104 -1.1669 0.0000 -0.0000 0.0000 93.4802 37.4023 54.6198 -107.5406 58.8049 -75.1297 0.0000 -0.0000 -47.5699 -36.8687 2.5709 -1.9267 7.1250 -0.0000 -0.0000 -7.8296 -26.7486 -3.4983
20.3297 15.8167 -0.4420 185.1020 -91.8043 -554.6340 0.0000 0.0000 0.0000 -14.0081 -2.9767 -42.1938 10.8796 17.8756 62.3898 0.6623 -0.3116 -15.2757 0.0003 0.1077 0.2960 0.0000 0.0000 0.0000 12.8583 4.7984 -39.8394 -9.9437 -17.3781 59.3001 0.0123 4.0944 -2.3326 -5.7294 -14.1609 43.8857 -0.0788 1.4189 12.7281 1.2723 1.2111 10.7331 1.2486 0.2869 4.1463 -2.3997 -4.0804 -14.3725 6.4444 -5.6148 4.5869 1.9413 -2.4902 3.9460 0.0000 -0.0000 0.0000 -83.1865 -50.0170 56.6677 110.0217 -58.4298 -77.2479 -0.0000 0.0000 -8.7063 26.8869 24.9086 12.0546 -7.1250 0.0000 -0.0000 -2.9839 57.4586 -0.9109 0.0000 -0.0000 0.0000 93.3703 37.3618 53.7998 -106.9544 58.8855 -74.6280 0.0000 -0.0000 -47.7036 -37.2585 2.4326 -1.8492 7.1250 -0.0000 -0.0000 -8.1397 -26.9026 -3.6098
20.3312 15.8161 -0.4427 183.4850 -91.8316 -553.0420 0.0000 0.0000 0.0000 -13.9606 -2.9867 -42.1790 10.8811 17.8764 62.3947 0.6594 -0.3234 -15.2379 0.0005 0.1456 0.4000 0.0000 0.0000 0.0000 12.9074 4.7930 -39.8040 -9.9397 -17.3758 59.2868 0.0120 4.1155 -2.3613 -5.7260 -14.1574 43.8718 -0.0075 1.4228 12.7374 1.2496 1.2223 10.7412 1.1838 0.2974 4.1521 -2.3080 -4.0796 -14.4110 6.3620 -5.6255 4.6509 1.8995 -2.4959 3.9670 -0.0000 0.0000 0.0000 -83.1598 -50.0516 56.0464 110.7036 -58.3168 -77.8285 -0.0000 0.0000 -8.9457 27.5793 25.0355 12.4641 -7.1250 0.0000 -0.0000 -2.2574 57.7519 -0.7049 -0.0000 0.0000 0.0000 93.2343 37.3316 53.0548 -106.3506 58.9653 -74.1109 0.0000 -0.0000 -47.7255 -37.6246 2.3749 -1.8294 7.1250 -0.0000 -0.0000 -8.4232 -26.9581 -3.7269
20.3331 15.8155 -0.4434 182.2640 -91.8660 -551.8350 0.0000 0.0000 0.0000 -13.9274 -3.0077 -42.1724 10.8812 17.8765 62.3953 0.6562 -0.3306 -15.1974 0.0007 0.1654 0.4546 0.0000 0.0000 0.0000 12.9390 4.7908 -39.7816 -9.9358 -17.3736 59.2736 0.0115 4.1268 -2.3958 -5.7144 -14.1457 43.8243 0.0195 1.4207 12.7409 1.2556 1.2218 10.7427 1.1750 0.2986 4.1523 -2.2908 -4.0793 -14.4248 6.2958 -5.6239 4.7043 1.8759 -2.4967 3.9828 -0.0000 -0.0000 0.0000 -83.1932 -50.0413 55.4389 111.3018 -58.2140 -78.3373 -0.0000 0.0000 -9.0959 28.1906 25.2399 12.8737 -7.1250 0.0000 -0.0000 -1.6398 58.1127 -0.5262 -0.0000 -0.0000 0.0000 93.1342 37.3151 52.3750 -105.7468 59.0420 -73.5932 0.0000 -0.0000 -47.6764 -38.0007 2.3794 -1.8579 7.1250 -0.0000 -0.0000 -8.7067 -26.9356 -3.8597
20.3355 15.8153 -0.4436 181.7500 -91.9037 -551.3360 0.0000 0.0000 0.0000 -13.9218 -3.0316 -42.1588 10.8788 17.8753 62.3875 0.6536 -0.3336 -15.1669 0.0006 0.1563 0.4295 0.0000 0.0000 0.0000 12.9417 4.7956 -39.7574 -9.9319 -17.3714 59.2606 0.0109 4.1416 -2.4373 -5.6998 -14.1310 43.7647 0.0278 1.4135 12.7482 1.2609 1.2129 10.7432 1.1766 0.2944 4.1492 -2.3247 -4.0826 -14.4151 6.2617 -5.6198 4.7385 1.8711 -2.4963 3.9913 -0.0000 0.0000 0.0000 -83.2440 -49.9973 54.8828 111.8374 -58.1191 -78.7923 -0.0000 0.0000 -9.1927 28.8341 25.4924 13.3300 -7.1250 0.0000 -0.0000 -0.9934 58.5362 -0.3289 -0.0000 0.0000 0.0000 93.1177 37.3070 51.7604 -105.2049 59.1082 -73.1284 0.0000 -0.0000 -47.6531 -38.4200 2.3954 -1.8987 7.1250 -0.0000 -0.0000 -9.0211 -26.8961 -4.0108
20.3383 15.8153 -0.4435 182.0100 -91.9321 -551.6220 0.0000 0.0000 0.0000 -13.9455 -3.0409 -42.1285 10.8738 17.8728 62.3711 0.6523 -0.3390 -15.1498 0.0005 0.1447 0.3974 0.0000 0.0000 0.0000 12.9169 4.8159 -39.7173 -9.9282 -17.3693 59.2480 0.0104 4.1677 -2.4802 -5.6879 -14.1189 43.7158 0.0195 1.4030 12.7699 1.2571 1.1983 10.7424 1.1782 0.2866 4.1369 -2.3861 -4.0856 -14.3788 6.2485 -5.6116 4.7530 1.8779 -2.4942 3.9908 0.0000 0.0000 0.0000 -83.3055 -49.9319 54.4067 112.2863 -58.0375 -79.1733 -0.0000 0.0000 -9.2513 29.5555 25.7407 13.8350 -7.1250 0.0000 -0.0000 -0.2454 58.9777 -0.0838 0.0000 0.0000 0.0000 93.2058 37.3080 51.2514 -104.7870 59.1575 -72.7697 0.0000 -0.0000 -47.7690 -38.8617 2.3967 -1.9299 7.1250 -0.0000 -0.0000 -9.3538 -26.8737 -4.1674
20.3410 15.8156 -0.4431 182.8270 -91.9399 -552.4770 0.0000 0.0000 0.0000 -13.9869 -3.0259 -42.0850 10.8674 17.8696 62.3502 0.6523 -0.3523 -15.1455 0.0006 0.1635 0.4492 0.0000 0.0000 0.0000 12.8775 4.8552 -39.6607 -9.9247 -17.3673 59.2363 0.0103 4.2000 -2.5108 -5.6830 -14.1140 43.6959 -0.0070 1.3909 12.8058 1.2481 1.1799 10.7389 1.1847 0.2760 4.1138 -2.4544 -4.0819 -14.3273 6.2342 -5.5929 4.7611 1.8867 -2.4875 3.9856 0.0000 0.0000 0.0000 -83.3933 -49.8577 54.0321 112.6034 -57.9786 -79.4422 -0.0000 0.0000 -9.2716 30.2909 25.9317 14.3294 -7.1250 0.0000 -0.0000 0.5498 59.3644 0.1929 0.0000 0.0000 0.0000 93.3943 37.3370 50.8857 -104.4884 59.1918 -72.5133 0.0000 -0.0000 -48.0119 -39.2803 2.4201 -1.9780 7.1250 -0.0000 -0.0000 -9.6658 -26.8237 -4.3216
